<svg xmlns="http://www.w3.org/2000/svg" xmlns:xlink="http://www.w3.org/1999/xlink" width="500" zoomAndPan="magnify" viewBox="0 0 375 374.999991" height="500" preserveAspectRatio="xMidYMid meet" version="1.0"><defs><g/><clipPath id="136306ac53"><path d="M 231 246 L 283 246 L 283 297.894531 L 231 297.894531 Z M 231 246 " clip-rule="nonzero"/></clipPath><clipPath id="695cf0dd5c"><path d="M 45 77.394531 L 107 77.394531 L 107 139 L 45 139 Z M 45 77.394531 " clip-rule="nonzero"/></clipPath><clipPath id="9d60f9c1d0"><path d="M 121 77.394531 L 155 77.394531 L 155 111 L 121 111 Z M 121 77.394531 " clip-rule="nonzero"/></clipPath></defs><rect x="-37.5" width="450" fill="#ffffff" y="-37.499999" height="449.999989" fill-opacity="1"/><rect x="-37.5" width="450" fill="#ffffff" y="-37.499999" height="449.999989" fill-opacity="1"/><path fill="#ff2e9f" d="M 262.078125 134.8125 C 242.632812 115.367188 211.105469 115.367188 191.660156 134.8125 L 187.089844 139.378906 L 182.523438 134.8125 C 163.078125 115.367188 131.546875 115.367188 112.101562 134.8125 C 92.652344 154.261719 92.652344 185.789062 112.101562 205.234375 L 187.089844 280.222656 L 262.078125 205.234375 C 281.527344 185.789062 281.527344 154.261719 262.078125 134.8125 " fill-opacity="1" fill-rule="nonzero"/><g clip-path="url(#136306ac53)"><path fill="#ff2e9f" d="M 282.160156 272.25 C 268.160156 272.25 256.808594 260.898438 256.808594 246.898438 C 256.808594 260.898438 245.457031 272.25 231.457031 272.25 C 245.457031 272.25 256.808594 283.601562 256.808594 297.601562 C 256.808594 283.601562 268.160156 272.25 282.160156 272.25 " fill-opacity="1" fill-rule="nonzero"/></g><g clip-path="url(#695cf0dd5c)"><path fill="#ff2e9f" d="M 106.484375 107.933594 C 89.621094 107.933594 75.945312 94.261719 75.945312 77.394531 C 75.945312 94.261719 62.273438 107.933594 45.410156 107.933594 C 62.273438 107.933594 75.945312 121.605469 75.945312 138.472656 C 75.945312 121.605469 89.621094 107.933594 106.484375 107.933594 " fill-opacity="1" fill-rule="nonzero"/></g><path fill="#ff2e9f" d="M 343.144531 237.121094 C 325.710938 237.121094 311.574219 222.988281 311.574219 205.550781 C 311.574219 222.988281 297.4375 237.121094 280.003906 237.121094 C 297.4375 237.121094 311.574219 251.257812 311.574219 268.695312 C 311.574219 251.257812 325.710938 237.121094 343.144531 237.121094 " fill-opacity="1" fill-rule="nonzero"/><path fill="#ff2e9f" d="M 66.726562 171.53125 C 52.726562 171.53125 41.375 160.179688 41.375 146.179688 C 41.375 160.179688 30.023438 171.53125 16.023438 171.53125 C 30.023438 171.53125 41.375 182.878906 41.375 196.878906 C 41.375 182.878906 52.726562 171.53125 66.726562 171.53125 " fill-opacity="1" fill-rule="nonzero"/><g clip-path="url(#9d60f9c1d0)"><path fill="#ff2e9f" d="M 154.8125 93.960938 C 145.664062 93.960938 138.246094 86.542969 138.246094 77.394531 C 138.246094 86.542969 130.828125 93.960938 121.679688 93.960938 C 130.828125 93.960938 138.246094 101.378906 138.246094 110.527344 C 138.246094 101.378906 145.664062 93.960938 154.8125 93.960938 " fill-opacity="1" fill-rule="nonzero"/></g><path fill="#ff2e9f" d="M 153.976562 247.113281 C 95.855469 260.394531 50.71875 260.132812 45.839844 244.613281 C 41.898438 232.066406 65.261719 212.636719 103.582031 193.839844 C 102.699219 192.222656 101.902344 190.570312 101.214844 188.882812 C 44.917969 213.425781 8.859375 239.34375 13.691406 254.71875 C 19.40625 272.902344 80.492188 270.464844 157.625 250.761719 L 153.976562 247.113281 " fill-opacity="1" fill-rule="nonzero"/><path fill="#ff2e9f" d="M 360.488281 145.734375 C 356.0625 131.648438 318.421875 129.9375 265.835938 139.03125 C 267.34375 140.917969 268.695312 142.890625 269.886719 144.929688 C 302.523438 141.703125 324.980469 145.152344 328.339844 155.839844 C 332.878906 170.285156 301.238281 193.847656 252.25 215.066406 L 243.90625 223.410156 C 316.421875 195.757812 366.105469 163.613281 360.488281 145.734375 " fill-opacity="1" fill-rule="nonzero"/><path stroke-linecap="butt" transform="matrix(1.246348, -0.0843965, 0.0843965, 1.246348, 24.913258, 174.141961)" fill="none" stroke-linejoin="miter" d="M 40.822347 40.000143 L 66.444176 39.998803 C 67.070892 40.000497 67.56172 39.463317 67.563203 38.83972 L 67.561823 29.001506 C 67.563306 28.377909 67.070226 27.883799 66.446418 27.885436 L 46.256222 27.884748 C 45.619934 27.88554 45.126854 27.39143 45.128337 26.767833 L 45.126938 17.346461 C 45.126146 16.710173 45.620256 16.217094 46.256544 16.216302 L 66.44362 16.216778 C 67.070337 16.218472 67.561165 15.681292 67.562648 15.057695 L 67.563754 5.229052 C 67.562751 4.595884 67.069671 4.101774 66.445863 4.103411 L 40.821126 4.101419 C 35.530732 4.100474 31.665305 7.957009 31.663514 13.259883 L 31.663884 30.842531 C 31.665213 36.145616 35.531953 39.999197 40.822347 40.000143 Z M 70.966614 40.001027 L 82.140012 39.999169 C 82.763609 40.000652 83.257719 39.507572 83.259202 38.883975 L 83.258903 32.5937 C 83.257266 31.969892 83.751376 31.476812 84.387663 31.476021 C 85.01126 31.477503 85.504502 32.015503 85.503019 32.6391 L 85.503368 38.882365 C 85.505004 39.506173 86.038854 39.99991 86.66557 40.001604 L 97.838968 39.999745 C 98.475255 39.998953 98.966246 39.505662 98.967729 38.882065 L 98.966389 13.260237 C 98.96818 7.957364 95.111011 4.101296 89.807926 4.102626 L 78.951324 4.100863 C 73.660719 4.103037 69.795503 7.956453 69.793713 13.259326 L 69.795052 38.881155 C 69.793358 39.507871 70.343017 39.999545 70.966614 40.001027 Z M 84.386419 20.710105 C 83.750343 20.707777 83.257052 20.216787 83.25938 19.580711 L 83.257503 15.998241 C 83.256711 15.361954 83.750821 14.868874 84.386897 14.871202 C 85.010706 14.869565 85.503785 15.363675 85.504577 15.999963 L 85.503546 19.579101 C 85.504338 20.215388 85.010228 20.708468 84.386419 20.710105 Z M 102.367858 39.999272 L 113.541044 40.000533 C 114.167972 39.999107 114.658962 39.505816 114.660445 38.88222 L 114.658824 18.911258 C 114.660307 18.287661 115.151931 17.78501 115.788219 17.784218 C 116.412027 17.782581 116.904262 18.289171 116.905899 18.912979 L 116.904724 38.971508 C 116.906199 39.551427 117.443005 40.001486 118.022924 40.000011 L 129.24 40.00111 C 129.832398 40.00048 130.36744 39.550916 130.369085 38.971208 L 130.36714 18.912468 C 130.368623 18.288871 130.860458 17.783101 131.487175 17.784795 C 132.120342 17.783792 132.612788 18.287262 132.614425 18.91107 L 132.612926 38.88182 C 132.614563 39.505628 133.151532 39.999576 133.775129 40.001059 L 144.948527 39.9992 C 145.572124 40.000683 146.066234 39.507603 146.067717 38.884007 L 146.064985 5.229238 C 146.067102 4.596281 145.530133 4.102334 144.906536 4.100851 L 125.875966 4.100333 C 125.252158 4.10197 124.75821 4.638939 124.759002 5.275226 L 124.760195 11.506012 C 124.758501 12.132729 124.267511 12.62602 123.631435 12.623692 C 123.007627 12.625329 122.514547 12.131219 122.51291 11.507411 L 122.514886 5.229827 C 122.514094 4.59354 121.976913 4.102712 121.353316 4.101229 L 102.325867 4.100922 C 101.689579 4.101714 101.195469 4.594794 101.196261 5.231082 L 101.196084 38.882519 C 101.197721 39.506327 101.744049 40.000909 102.367858 39.999272 Z M 149.470966 40.001424 L 160.644363 39.999566 C 161.26796 40.001049 161.76207 39.507969 161.760644 38.881041 L 161.760821 5.229603 C 161.763149 4.593527 161.225969 4.102699 160.599252 4.101005 L 149.425855 4.102863 C 148.792898 4.100747 148.298788 4.593826 148.29958 5.230114 L 148.299403 38.881552 C 148.297709 39.508268 148.847369 39.999942 149.470966 40.001424 Z M 165.129364 39.999255 L 189.80768 39.999843 C 190.431277 40.001326 190.925387 39.508246 190.927081 38.881529 L 190.925328 29.002546 C 190.927022 28.375829 190.433731 27.884839 189.807014 27.883145 L 178.633617 27.885003 C 178.00066 27.882887 177.46348 27.392059 177.461843 26.76825 L 177.46306 5.27428 C 177.462268 4.637993 176.968814 4.103113 176.345218 4.10163 L 165.172031 4.100369 C 164.548223 4.102006 164.000864 4.594614 163.998536 5.230691 L 163.998359 38.882128 C 163.999996 39.505936 164.493076 40.000047 165.129364 39.999255 Z M 194.33033 39.998947 L 205.503516 40.000208 C 206.127325 39.998571 206.621435 39.505491 206.622918 38.881894 L 206.622407 32.59474 C 206.62077 31.970932 207.11488 31.477852 207.751168 31.47706 C 208.374765 31.478543 208.868218 32.013422 208.866735 32.637019 L 208.866872 38.883404 C 208.868509 39.507213 209.402358 40.000949 210.029286 39.999524 L 221.202472 40.000785 C 221.83876 39.999993 222.32975 39.506702 222.331233 38.883105 L 222.329894 13.261276 C 222.331685 7.958403 218.474515 4.102336 213.171642 4.100545 L 202.314828 4.101902 C 197.024435 4.100957 193.159008 7.957492 193.157217 13.260365 L 193.158556 38.882194 C 193.157074 39.505791 193.706522 40.000584 194.33033 39.998947 Z M 207.750135 20.708025 C 207.113848 20.708817 206.620768 20.214707 206.619765 19.581539 L 206.621008 15.999281 C 206.620216 15.362993 207.114326 14.869913 207.750613 14.869122 C 208.37421 14.870604 208.86729 15.364715 208.868293 15.997882 L 208.86705 19.58014 C 208.867842 20.216428 208.373732 20.709508 207.750135 20.708025 Z M 207.750135 20.708025 " stroke="#ff2e9f" stroke-width="7.797049" stroke-opacity="1" stroke-miterlimit="4"/><g fill="#ffffff" fill-opacity="1"><g transform="translate(66.361146, 221.417818)"><g><path d="M 12.804688 -0.867188 L 44.738281 -3.03125 C 45.523438 -3.082031 46.089844 -3.796875 46.039062 -4.578125 L 45.210938 -16.824219 C 45.15625 -17.609375 44.5 -18.183594 43.714844 -18.128906 L 18.550781 -16.425781 C 17.769531 -16.371094 17.109375 -16.945312 17.058594 -17.726562 L 16.261719 -29.472656 C 16.210938 -30.253906 16.785156 -30.910156 17.566406 -30.964844 L 42.730469 -32.667969 C 43.515625 -32.722656 44.085938 -33.433594 44.03125 -34.21875 L 43.203125 -46.464844 C 43.148438 -47.246094 42.492188 -47.820312 41.710938 -47.769531 L 9.777344 -45.605469 C 3.179688 -45.160156 -1.304688 -40.023438 -0.859375 -33.425781 L 0.625 -11.503906 C 1.074219 -4.902344 6.207031 -0.421875 12.804688 -0.867188 Z M 12.804688 -0.867188 "/></g></g></g><g fill="#ffffff" fill-opacity="1"><g transform="translate(113.884998, 218.199736)"><g><path d="M 2.851562 -0.191406 L 16.777344 -1.136719 C 17.558594 -1.1875 18.132812 -1.847656 18.082031 -2.628906 L 17.550781 -10.457031 C 17.496094 -11.242188 18.070312 -11.898438 18.855469 -11.949219 C 19.636719 -12.003906 20.296875 -11.375 20.351562 -10.589844 L 20.875 -2.816406 C 20.929688 -2.035156 21.640625 -1.464844 22.425781 -1.519531 L 36.351562 -2.460938 C 37.132812 -2.515625 37.707031 -3.171875 37.652344 -3.953125 L 35.492188 -35.886719 C 35.042969 -42.484375 29.910156 -46.96875 23.308594 -46.523438 L 9.777344 -45.605469 C 3.179688 -45.160156 -1.304688 -40.023438 -0.859375 -33.425781 L 1.304688 -1.492188 C 1.355469 -0.710938 2.070312 -0.140625 2.851562 -0.191406 Z M 17.945312 -25.371094 C 17.160156 -25.320312 16.503906 -25.894531 16.453125 -26.675781 L 16.148438 -31.148438 C 16.097656 -31.933594 16.667969 -32.589844 17.453125 -32.644531 C 18.234375 -32.695312 18.890625 -32.121094 18.945312 -31.339844 L 19.25 -26.867188 C 19.300781 -26.082031 18.726562 -25.425781 17.945312 -25.371094 Z M 17.945312 -25.371094 "/></g></g></g><g fill="#ffffff" fill-opacity="1"><g transform="translate(153.022286, 215.549552)"><g><path d="M 2.851562 -0.191406 L 16.777344 -1.136719 C 17.558594 -1.1875 18.132812 -1.847656 18.082031 -2.628906 L 16.394531 -27.515625 C 16.34375 -28.296875 16.914062 -28.953125 17.699219 -29.007812 C 18.480469 -29.0625 19.136719 -28.488281 19.191406 -27.703125 L 20.882812 -2.707031 C 20.933594 -1.980469 21.640625 -1.464844 22.371094 -1.515625 L 36.351562 -2.460938 C 37.078125 -2.511719 37.710938 -3.117188 37.660156 -3.84375 L 35.96875 -28.839844 C 35.914062 -29.625 36.488281 -30.28125 37.273438 -30.332031 C 38.054688 -30.386719 38.710938 -29.8125 38.765625 -29.03125 L 40.449219 -4.144531 C 40.503906 -3.359375 41.214844 -2.789062 42 -2.84375 L 55.921875 -3.785156 C 56.707031 -3.839844 57.28125 -4.496094 57.226562 -5.28125 L 54.386719 -47.222656 C 54.332031 -48.003906 53.621094 -48.574219 52.839844 -48.523438 L 29.125 -46.917969 C 28.34375 -46.863281 27.773438 -46.152344 27.828125 -45.367188 L 28.351562 -37.59375 C 28.40625 -36.8125 27.832031 -36.15625 27.050781 -36.101562 C 26.265625 -36.046875 25.609375 -36.621094 25.558594 -37.40625 L 25.027344 -45.234375 C 24.972656 -46.015625 24.261719 -46.585938 23.476562 -46.535156 L -0.234375 -44.929688 C -1.015625 -44.875 -1.589844 -44.21875 -1.535156 -43.433594 L 1.304688 -1.492188 C 1.355469 -0.710938 2.070312 -0.140625 2.851562 -0.191406 Z M 2.851562 -0.191406 "/></g></g></g><g fill="#ffffff" fill-opacity="1"><g transform="translate(211.728235, 211.574274)"><g><path d="M 2.851562 -0.191406 L 16.777344 -1.136719 C 17.558594 -1.1875 18.132812 -1.847656 18.082031 -2.628906 L 15.242188 -44.570312 C 15.1875 -45.355469 14.472656 -45.925781 13.691406 -45.871094 L -0.234375 -44.929688 C -1.015625 -44.875 -1.589844 -44.21875 -1.535156 -43.433594 L 1.304688 -1.492188 C 1.355469 -0.710938 2.070312 -0.140625 2.851562 -0.191406 Z M 2.851562 -0.191406 "/></g></g></g><g fill="#ffffff" fill-opacity="1"><g transform="translate(231.296879, 210.249182)"><g><path d="M 2.796875 -0.1875 L 33.554688 -2.273438 C 34.335938 -2.324219 34.910156 -2.980469 34.859375 -3.765625 L 34.023438 -16.066406 C 33.972656 -16.851562 33.316406 -17.425781 32.53125 -17.371094 L 18.605469 -16.429688 C 17.824219 -16.375 17.109375 -16.945312 17.058594 -17.726562 L 15.242188 -44.515625 C 15.191406 -45.296875 14.53125 -45.929688 13.746094 -45.875 L -0.175781 -44.933594 C -0.960938 -44.878906 -1.589844 -44.21875 -1.535156 -43.433594 L 1.304688 -1.492188 C 1.355469 -0.710938 2.011719 -0.136719 2.796875 -0.1875 Z M 2.796875 -0.1875 "/></g></g></g><g fill="#ffffff" fill-opacity="1"><g transform="translate(267.638651, 207.788296)"><g><path d="M 2.851562 -0.191406 L 16.777344 -1.136719 C 17.558594 -1.1875 18.132812 -1.847656 18.082031 -2.628906 L 17.550781 -10.457031 C 17.496094 -11.242188 18.070312 -11.898438 18.855469 -11.949219 C 19.636719 -12.003906 20.296875 -11.375 20.351562 -10.589844 L 20.875 -2.816406 C 20.929688 -2.035156 21.640625 -1.464844 22.425781 -1.519531 L 36.351562 -2.460938 C 37.132812 -2.515625 37.707031 -3.171875 37.652344 -3.953125 L 35.492188 -35.886719 C 35.042969 -42.484375 29.910156 -46.96875 23.308594 -46.523438 L 9.777344 -45.605469 C 3.179688 -45.160156 -1.304688 -40.023438 -0.859375 -33.425781 L 1.304688 -1.492188 C 1.355469 -0.710938 2.070312 -0.140625 2.851562 -0.191406 Z M 17.945312 -25.371094 C 17.160156 -25.320312 16.503906 -25.894531 16.453125 -26.675781 L 16.148438 -31.148438 C 16.097656 -31.933594 16.667969 -32.589844 17.453125 -32.644531 C 18.234375 -32.695312 18.890625 -32.121094 18.945312 -31.339844 L 19.25 -26.867188 C 19.300781 -26.082031 18.726562 -25.425781 17.945312 -25.371094 Z M 17.945312 -25.371094 "/></g></g></g></svg>